<svg xmlns="http://www.w3.org/2000/svg" viewBox="0 0 1024 1024"><path d="M959.5 95.6V95c0-.6-.1-1.2-.1-1.8v-.3c-.1-.7-.2-1.4-.3-2.2v-.3c-.3-1.5-.6-3-1.1-4.4-.5-1.5-1.1-3-1.8-4.4 0 0 0-.1-.1-.1-.7-1.3-1.4-2.6-2.3-3.8-.1-.1-.2-.2-.2-.4-.4-.6-.8-1.1-1.3-1.7l-.1-.1c-.4-.5-.9-1-1.3-1.5-.1-.1-.2-.3-.4-.4-.5-.5-1-1-1.5-1.4l-.1-.1c-.5-.4-1-.9-1.5-1.3-.1-.1-.2-.2-.3-.2-1.2-.9-2.4-1.7-3.6-2.4l-.1-.1c-1.3-.7-2.7-1.4-4.1-2h-.1c-1.4-.5-2.9-1-4.3-1.3h-.2c-1.4-.3-2.9-.5-4.4-.7h-.5c-.7 0-1.4-.1-2.2-.1h-256c-17.7 0-32 14.3-32 32s14.3 32 32 32h178.7L640.7 337.5c-9.1-7.6-18.6-14.7-28.4-21.4-28.1-19-59.1-34-92.2-44.3C487 261.5 451.8 256 415.4 256c-48.5 0-94.9 9.8-137 27.7-63.2 26.7-116.9 71.3-154.8 127.5-19 28.1-34 59.1-44.3 92.2-10.3 33-15.8 68.2-15.8 104.6 0 48.5 9.8 94.9 27.7 137 26.7 63.2 71.3 116.9 127.5 154.8 28.1 19 59.1 34 92.2 44.3 33.1 10.3 68.3 15.8 104.7 15.8 48.5 0 94.9-9.8 137-27.7 63.2-26.7 116.9-71.3 154.8-127.5 19-28.1 34-59.1 44.3-92.2 10.3-33.1 15.8-68.3 15.8-104.7 0-48.5-9.8-94.9-27.7-137-13.6-32.1-31.8-61.8-53.8-88.2l209.5-209.5V352c0 17.7 14.3 32 32 32s32-14.3 32-32V96v-.4zM703.5 608c0 39.9-8.1 77.7-22.6 112.1-21.8 51.6-58.4 95.7-104.4 126.7-23 15.5-48.3 27.8-75.3 36.2-27 8.4-55.8 12.9-85.7 12.9-39.9 0-77.7-8.1-112.1-22.6-51.6-21.8-95.7-58.3-126.7-104.3-15.5-23-27.8-48.3-36.2-75.3-8.4-27-12.9-55.8-12.9-85.7 0-39.9 8.1-77.7 22.6-112.1 21.8-51.6 58.4-95.7 104.4-126.7 23-15.5 48.3-27.8 75.3-36.2 27-8.4 55.8-12.9 85.7-12.9 39.9 0 77.7 8.1 112.1 22.6 30.3 12.8 57.9 30.7 81.9 52.5 1.6 4.2 4 8.1 7.4 11.5 3.4 3.4 7.3 5.8 11.5 7.4 9.4 10.3 18.1 21.4 26 33 15.5 23 27.8 48.3 36.2 75.3 8.3 27 12.8 55.7 12.8 85.6z"/></svg>
