<svg xmlns="http://www.w3.org/2000/svg" width="16" height="16" viewBox="0 0 16 16">
  <path d="M6.99383468,0.993751221 C10.3075432,0.993751221 12.9938347,3.68004272 12.9938347,6.99375122 C12.9938347,8.46891634 12.4614742,9.81974201 11.5783922,10.8645893 L14.8572322,14.1431825 C15.0524943,14.3384447 15.0524943,14.6550272 14.8572322,14.8502893 C14.6836658,15.0238557 14.4142414,15.0431408 14.2193733,14.9081448 L14.1501254,14.8502893 L10.8716694,11.5723862 C9.82585916,12.45901 8.47229467,12.9937512 6.99383468,12.9937512 C3.68012618,12.9937512 0.993834675,10.3074597 0.993834675,6.99375122 C0.993834675,3.68004272 3.68012618,0.993751221 6.99383468,0.993751221 Z M6.99383468,1.99375122 C4.23241093,1.99375122 1.99383468,4.23232747 1.99383468,6.99375122 C1.99383468,9.75517497 4.23241093,11.9937512 6.99383468,11.9937512 C9.75525842,11.9937512 11.9938347,9.75517497 11.9938347,6.99375122 C11.9938347,4.23232747 9.75525842,1.99375122 6.99383468,1.99375122 Z"/>
</svg>
